<svg width="78" height="78" viewBox="0 0 78 78" fill="none" xmlns="http://www.w3.org/2000/svg">
<path d="M53.446 77.029H23.583C10.579 77.029 0 66.45 0 53.446V23.583C0 10.579 10.579 0 23.583 0H53.446C66.45 0 77.029 10.579 77.029 23.583V53.446C77.029 66.449 66.45 77.029 53.446 77.029ZM23.583 5.76801C13.76 5.76801 5.76801 13.76 5.76801 23.583V53.446C5.76801 63.269 13.76 71.261 23.583 71.261H53.446C63.27 71.261 71.262 63.269 71.262 53.446V23.583C71.262 13.76 63.27 5.76801 53.446 5.76801H23.583Z" fill="white"/>
<path d="M38.514 57.999C27.77 57.999 19.03 49.258 19.03 38.514C19.03 27.77 27.77 19.029 38.514 19.029C49.258 19.029 57.999 27.77 57.999 38.514C57.999 49.258 49.258 57.999 38.514 57.999ZM38.514 24.936C31.027 24.936 24.936 31.027 24.936 38.515C24.936 46.002 31.027 52.093 38.514 52.093C46.001 52.093 52.093 46.002 52.093 38.515C52.093 31.027 46.002 24.936 38.514 24.936Z" fill="white"/>
<path d="M65.192 16.91C65.192 19.712 62.921 21.983 60.119 21.983C57.317 21.983 55.046 19.712 55.046 16.91C55.046 14.108 57.317 11.837 60.119 11.837C62.921 11.837 65.192 14.108 65.192 16.91Z" fill="white"/>
</svg>
