<svg width="69" height="72" viewBox="0 0 69 72" fill="none" xmlns="http://www.w3.org/2000/svg">
<path d="M67.75 18.5C67.75 22.9258 64.3849 27.2194 58.3045 30.4799C52.2762 33.7124 43.8622 35.75 34.5 35.75C25.1378 35.75 16.7238 33.7124 10.6955 30.4799C4.61514 27.2194 1.25 22.9258 1.25 18.5C1.25 14.0742 4.61514 9.78064 10.6955 6.52014C16.7238 3.28758 25.1378 1.25 34.5 1.25C43.8622 1.25 52.2762 3.28758 58.3045 6.52014C64.3849 9.78064 67.75 14.0742 67.75 18.5Z" stroke="white" stroke-width="2.5"/>
<path d="M67.75 36.5C67.75 40.9258 64.3849 45.2194 58.3045 48.4799C52.2762 51.7124 43.8622 53.75 34.5 53.75C25.1378 53.75 16.7238 51.7124 10.6955 48.4799C4.61514 45.2194 1.25 40.9258 1.25 36.5C1.25 32.0742 4.61514 27.7806 10.6955 24.5201C16.7238 21.2876 25.1378 19.25 34.5 19.25C43.8622 19.25 52.2762 21.2876 58.3045 24.5201C64.3849 27.7806 67.75 32.0742 67.75 36.5Z" stroke="white" stroke-width="2.5"/>
<path d="M67.75 53.5C67.75 57.9258 64.3849 62.2194 58.3045 65.4799C52.2762 68.7124 43.8622 70.75 34.5 70.75C25.1378 70.75 16.7238 68.7124 10.6955 65.4799C4.61514 62.2194 1.25 57.9258 1.25 53.5C1.25 49.0742 4.61514 44.7806 10.6955 41.5201C16.7238 38.2876 25.1378 36.25 34.5 36.25C43.8622 36.25 52.2762 38.2876 58.3045 41.5201C64.3849 44.7806 67.75 49.0742 67.75 53.5Z" stroke="white" stroke-width="2.5"/>
</svg>