<svg width="50" height="36" viewBox="0 0 50 36" fill="none" xmlns="http://www.w3.org/2000/svg">
<path d="M12.09 35.55L9.90002 30.35L24.17 27.85L12.09 35.55Z" fill="white"/>
<path d="M18.87 35.55H22.86L24.51 28.68L18.87 35.55Z" fill="white"/>
<path d="M25.63 28.68L27.71 35.55H29.29L25.63 28.68Z" fill="white"/>
<path d="M26.37 28.49L33.72 35.55H38.4L38.57 35.16L26.37 28.49Z" fill="white"/>
<path d="M26.8101 27.85L39.9801 31.9L41.3901 28.64L26.8101 27.85Z" fill="white"/>
<path d="M26.62 27.17L43.61 23.53L48.76 11.79L26.62 27.17Z" fill="white"/>
<path d="M26.11 26.42L33.59 18.99L32.58 17.02L26.11 26.42Z" fill="white"/>
<path d="M26.64 22.6L30.95 13.19L28.15 6.60999L26.64 22.6Z" fill="white"/>
<path d="M24.9999 26.05L25.3399 0L20.0699 12.21L24.9999 26.05Z" fill="white"/>
<path d="M22.99 24.5L18.2 17.02L17.04 18.99L22.99 24.5Z" fill="white"/>
<path d="M24 27.17L2 11.83L7.62 25.02L24 27.17Z" fill="white"/>
</svg>