<svg width="117" height="36" viewBox="0 0 117 36" fill="none" xmlns="http://www.w3.org/2000/svg">
<path d="M57.11 22.08H50.84L54.38 11.9H50.97L46.33 25.06H56.08L57.11 22.08Z" fill="white"/>
<path d="M67.33 13.1801H63.8L57.35 25.0601H60.77L62.01 22.78H69.12L70.36 25.0601H73.78L67.33 13.1801ZM63.32 20.3401L65.57 16.2101L67.8 20.3401H63.32Z" fill="white"/>
<path d="M83.24 22.65C82.54 22.93 81.72 23.07 80.75 23.07C80.12 23.07 79.53 23.04 78.99 22.97C78.45 22.9 77.95 22.72 77.5 22.43C77.04 22.14 76.82 21.7 76.82 21.11L73.37 21.14C73.37 22.81 74.14 23.94 75.68 24.54C77.22 25.13 78.87 25.43 80.64 25.43C82.44 25.43 84.06 25.14 85.5 24.56C86.94 23.98 87.67 22.87 87.67 21.22C87.67 20.32 87.39 19.64 86.84 19.18C86.29 18.72 85.6 18.42 84.78 18.28C83.96 18.14 82.98 18.07 81.86 18.07L80.51 18.09C78.03 18.09 76.79 17.66 76.79 16.81C76.79 16.26 77.17 15.86 77.92 15.61C78.67 15.35 79.59 15.23 80.67 15.23C81.67 15.27 82.51 15.45 83.21 15.76C83.91 16.07 84.25 16.53 84.25 17.12H87.67C87.67 15.44 86.93 14.3 85.45 13.72C83.97 13.13 82.36 12.84 80.64 12.84C75.79 12.84 73.37 14.18 73.37 16.87C73.37 17.85 73.67 18.59 74.28 19.08C74.88 19.57 75.63 19.88 76.52 20.01C77.41 20.14 78.49 20.21 79.78 20.21H80.76H80.78C81.75 20.21 82.59 20.28 83.28 20.41C83.97 20.54 84.32 20.84 84.32 21.3V21.32C84.29 21.92 83.94 22.37 83.24 22.65Z" fill="white"/>
<path d="M101.33 22.5201L92.22 22.5901V20.21H99.99V17.7201H92.22V15.7001H101.35L101.33 13.1801H88.89V25.0601H101.33V22.5201Z" fill="white"/>
<path d="M105.85 21.21H109.21L112.5 25.0501H116.48L113.03 21.0401C114.08 20.8201 114.9 20.37 115.49 19.71C116.08 19.05 116.38 18.2101 116.38 17.1901V17.1301C116.38 16.3501 116.17 15.6601 115.75 15.0701C115.33 14.4801 114.73 14.0101 113.97 13.6801C113.2 13.3501 112.32 13.1801 111.33 13.1801H102.64V25.0401H105.85V21.21ZM105.85 15.6201C107.77 15.6201 109.16 15.6101 110.04 15.5901C110.22 15.5801 110.44 15.5701 110.7 15.5701C111.29 15.5701 111.74 15.6001 112.06 15.6501C112.38 15.7001 112.64 15.8501 112.85 16.0801C113.05 16.3201 113.16 16.6901 113.16 17.2001C113.16 17.6801 113.06 18.0301 112.85 18.2601C112.65 18.4801 112.38 18.6201 112.06 18.6701C111.74 18.7201 111.28 18.7401 110.7 18.7401H110.68H105.85V15.6201Z" fill="white"/>
<path d="M45.87 28.21L41.9 35.52H44L44.76 34.12H49.14L49.9 35.52H52L48.04 28.21H45.87ZM45.57 32.61L46.95 30.07L48.32 32.61H45.57Z" fill="white"/>
<path d="M60.25 32.22C60.62 31.81 60.8 31.29 60.8 30.67V30.63C60.8 30.15 60.67 29.73 60.41 29.36C60.15 28.99 59.78 28.71 59.31 28.51C58.84 28.31 58.3 28.2 57.68 28.2H52.34V35.51H54.32V33.15H56.38L58.4 35.51H60.85L58.73 33.04C59.38 32.9 59.89 32.63 60.25 32.22ZM58.14 31.59C57.94 31.62 57.66 31.63 57.3 31.63H57.29H54.32V29.7C55.5 29.7 56.36 29.69 56.9 29.68C57.01 29.67 57.15 29.67 57.3 29.67C57.66 29.67 57.94 29.69 58.14 29.72C58.34 29.75 58.5 29.84 58.62 29.99C58.74 30.13 58.81 30.37 58.81 30.68C58.81 30.98 58.75 31.19 58.62 31.33C58.5 31.48 58.34 31.56 58.14 31.59Z" fill="white"/>
<path d="M61.4301 29.9V29.91H64.6501V35.52H66.7101V29.91H69.8901V28.21H61.4301V29.9Z" fill="white"/>
<path d="M76.4901 29.7C76.9501 29.54 77.52 29.46 78.18 29.46C78.79 29.49 79.3101 29.6 79.7401 29.79C80.1701 29.98 80.3801 30.26 80.3801 30.63H82.48C82.48 29.6 82.0201 28.9 81.1101 28.54C80.2001 28.18 79.21 28 78.15 28C75.17 28 73.6801 28.83 73.6801 30.48C73.6801 31.09 73.8701 31.54 74.2401 31.84C74.6101 32.14 75.07 32.33 75.62 32.41C76.17 32.49 76.8301 32.53 77.6301 32.53H78.23H78.2401C78.8401 32.53 79.3501 32.57 79.7801 32.65C80.2001 32.73 80.4201 32.92 80.4201 33.2V33.21C80.4101 33.59 80.2001 33.87 79.7701 34.04C79.3401 34.21 78.8301 34.3 78.2401 34.3C77.8501 34.3 77.4901 34.28 77.1601 34.24C76.8301 34.2 76.5201 34.09 76.2401 33.91C75.9601 33.73 75.82 33.46 75.82 33.1L73.7001 33.12C73.7001 34.15 74.17 34.84 75.12 35.21C76.07 35.58 77.0901 35.76 78.1701 35.76C79.2801 35.76 80.2701 35.58 81.1601 35.23C82.0501 34.87 82.4901 34.19 82.4901 33.18C82.4901 32.63 82.32 32.21 81.98 31.93C81.64 31.65 81.22 31.46 80.71 31.38C80.2 31.29 79.6001 31.25 78.9101 31.25L78.0801 31.26C76.5501 31.26 75.79 31 75.79 30.47C75.79 30.1 76.0301 29.86 76.4901 29.7Z" fill="white"/>
<path d="M89.6301 30.86H85.29V28.21H83.2401V35.52H85.29V32.53H89.6301V35.52H91.69V28.21H89.6301V30.86Z" fill="white"/>
<path d="M99.46 28.55C98.76 28.22 97.96 28.05 97.08 28.05C96.23 28.05 95.45 28.22 94.73 28.55C94.01 28.88 93.44 29.34 93.03 29.93C92.61 30.52 92.4 31.17 92.4 31.9C92.4 32.62 92.61 33.27 93.03 33.85C93.45 34.43 94.02 34.89 94.73 35.22C95.44 35.55 96.23 35.72 97.08 35.72C97.96 35.72 98.76 35.55 99.46 35.22C100.16 34.89 100.72 34.43 101.12 33.85C101.52 33.27 101.72 32.62 101.72 31.89C101.72 31.16 101.52 30.5 101.12 29.92C100.72 29.34 100.17 28.88 99.46 28.55ZM99.22 33.08C98.98 33.41 98.67 33.67 98.29 33.84C97.91 34.01 97.5 34.1 97.07 34.1C96.64 34.1 96.23 34.01 95.84 33.84C95.45 33.67 95.15 33.41 94.91 33.07C94.68 32.73 94.56 32.33 94.56 31.87C94.56 31.42 94.68 31.02 94.91 30.68C95.14 30.34 95.45 30.09 95.83 29.91C96.22 29.74 96.63 29.65 97.07 29.65C97.5 29.65 97.9 29.74 98.29 29.92C98.67 30.1 98.98 30.36 99.22 30.7C99.46 31.04 99.58 31.44 99.58 31.89C99.58 32.35 99.46 32.75 99.22 33.08Z" fill="white"/>
<path d="M111.42 33.04L109.76 28.21H107.59L105.92 33.05L103.43 28.21H101.26L105.06 35.52H107.19L108.66 31.09L110.15 35.52H112.27L116.03 28.21H113.9L111.42 33.04Z" fill="white"/>
<path d="M10.09 35.55L7.90002 30.35L22.17 27.85L10.09 35.55Z" fill="white"/>
<path d="M16.87 35.55H20.86L22.51 28.68L16.87 35.55Z" fill="white"/>
<path d="M23.63 28.68L25.71 35.55H27.29L23.63 28.68Z" fill="white"/>
<path d="M24.37 28.49L31.72 35.55H36.4L36.57 35.16L24.37 28.49Z" fill="white"/>
<path d="M24.81 27.85L37.98 31.9L39.39 28.64L24.81 27.85Z" fill="white"/>
<path d="M24.62 27.17L41.61 23.53L46.76 11.79L24.62 27.17Z" fill="white"/>
<path d="M24.11 26.42L31.59 18.99L30.58 17.02L24.11 26.42Z" fill="white"/>
<path d="M24.64 22.6L28.95 13.19L26.15 6.60999L24.64 22.6Z" fill="white"/>
<path d="M23 26.05L23.34 0L18.07 12.21L23 26.05Z" fill="white"/>
<path d="M20.99 24.5L16.2 17.02L15.04 18.99L20.99 24.5Z" fill="white"/>
<path d="M22 27.17L0 11.83L5.62 25.02L22 27.17Z" fill="white"/>
</svg>